<svg width="200" height="200" fill="#000000" xmlns="http://www.w3.org/2000/svg" viewBox="0 0 512 512" x="0px" y="0px"><defs><style>.cls-1{fill:none;}.cls-1,.cls-2{stroke:#000000;stroke-linecap:round;stroke-linejoin:round;stroke-width:20px;}</style></defs><title>Cry-Emoji-Emotion-Face-Expression-Feeling_2</title><path class="cls-1" d="M120.69,139.56c25-17.49,51-28,73.56-34.32C157.07,48,94.24,19.3,71.13,11a10.25,10.25,0,0,0-12.95,5.85C13.6,126.72,40.84,223.55,40.84,223.55h0c7.91-9.5,17.62-21.15,29.4-35.26"/><path class="cls-1" d="M71.13,11a10.25,10.25,0,0,0-12.95,5.85h0s55.18,36.68,88.63,106.94h0a251.41,251.41,0,0,1,47.44-18.57C157.07,48,94.24,19.3,71.13,11Z"/><path class="cls-1" d="M443.3,188.29c44.23,53,59.24,71.3,59.24,71.3C502.54,501,256.77,501,256.77,501S11,501,11,259.59c0,0,15-18.34,59.24-71.3"/><path class="cls-1" d="M146.81,123.8c56.28-29.06,110-28.06,110-28.06S327.75,94.42,392,139"/><path class="cls-1" d="M392.85,139.56c-25-17.49-51-28-73.55-34.32C356.47,48,419.3,19.3,442.41,11a10.25,10.25,0,0,1,12.95,5.85c44.58,109.85,17.34,206.68,17.34,206.68h0c-7.91-9.5-17.61-21.15-29.4-35.26"/><path class="cls-1" d="M442.41,11a10.25,10.25,0,0,1,12.95,5.85h0s-55.18,36.68-88.63,106.94h0a251.6,251.6,0,0,0-47.43-18.57C356.47,48,419.3,19.3,442.41,11Z"/><line class="cls-1" x1="102.35" y1="322.71" x2="68.71" y2="317.63"/><line class="cls-1" x1="70.14" y1="367.57" x2="103.78" y2="360.34"/><line class="cls-1" x1="411.2" y1="322.71" x2="444.83" y2="317.63"/><line class="cls-1" x1="443.4" y1="367.57" x2="409.76" y2="360.34"/><path class="cls-2" d="M290.06,314.45c0,11.76-33.29,28.15-33.29,28.15s-33.29-16.39-33.29-28.15,14.91-13.17,33.29-13.17S290.06,302.69,290.06,314.45Z"/><path class="cls-1" d="M133.62,286.29s35.24,6.18,52.39-26.51"/><path class="cls-1" d="M377.08,286.29s-35.24,6.18-52.4-26.51"/><path class="cls-1" d="M321.62,399.42s-15.91-33.56-64.28-33.35-64,33.89-64,33.89"/><line class="cls-1" x1="257.22" y1="338.42" x2="257.34" y2="366.07"/><path class="cls-2" d="M133.62,353a16.85,16.85,0,1,0,33.7,0c0-9.3-16.85-26.56-16.85-26.56S133.62,343.72,133.62,353Z"/><path class="cls-2" d="M379.92,353a16.85,16.85,0,1,1-33.7,0c0-9.3,16.85-26.56,16.85-26.56S379.92,343.72,379.92,353Z"/></svg>