<svg width="200" height="200" fill="#000000" xmlns="http://www.w3.org/2000/svg" xmlns:xlink="http://www.w3.org/1999/xlink" version="1.1" x="0px" y="0px" viewBox="0 0 100 100" enable-background="new 0 0 100 100" xml:space="preserve"><path d="M77.735,21.031c-6.358-1.806-13.756-0.902-19.902,0.382c-1.782,0.372-3.557,0.804-5.37,0.997  c-1.775,0.189-3.526,0.018-5.289-0.209c-0.959-0.124-1.949-0.251-3.121-0.334c-3.797-0.28-7.15,0.854-9.024,1.994  c-0.589,0.359-0.882,1.053-0.729,1.726c0.153,0.673,0.719,1.171,1.41,1.239c0.988,0.096,3.319,0.474,3.615,1.899  c0.275,1.323-0.041,1.802-2.604,5.155c-1.497,1.961-3.549,4.645-6.404,8.832c-4.171,6.116-6.647,12.998-8.072,18.236  c-0.612,0.876-3.951,5.454-8.837,8.399c-5.47,3.297-7.704,7.201-8.256,8.315c-0.262,0.525-0.178,1.146,0.214,1.582  c0.274,0.304,0.654,0.468,1.048,0.468c0.169,0,0.341-0.031,0.508-0.093c1.145-0.437,5.044-1.89,7.13-2.23  c2.642-0.431,4.724-1.629,6.085-2.647c0.652,0.787,1.963,1.744,4.431,1.549c2.059-0.177,3.218,1.003,3.732,1.718  c0.361,0.502,0.998,0.712,1.589,0.518c0.588-0.193,0.98-0.738,0.975-1.356c-0.012-1.439-0.31-4.993-2.815-6.928  c-1.569-1.21-1.545-3.364-1.473-4.187c4.969-5.044,14.364-13.622,25.27-18.809c3.684-1.752,7.295-3.156,11.296-4.392  c0.309,0.972,0.194,2.353-0.345,4.049c-0.157,0.493-0.036,1.035,0.315,1.417c0.346,0.378,0.871,0.545,1.382,0.429  c3.343-0.781,5.433-3.272,7.276-5.47c1.443-1.721,2.689-3.207,4.194-3.553c4.956-1.14,9.026-1.179,11.995-1.206  c3.583-0.032,6.157,0.032,6.899-2.063c0.875-2.468-2.504-4.81-4.923-5.959c-0.631-0.3-1.228-0.584-1.627-0.826  c-0.163-0.1-0.302-0.734-0.553-1.223c-0.525-1.029-1.321-2.586-3.746-4.584C82.14,22.323,79.982,21.669,77.735,21.031z   M81.542,29.958c0.145,0.197,0.128,0.659-0.164,0.917c-0.319,0.283-0.585,0.422-2.37,0.422c-0.182,0-0.38-0.001-0.595-0.003  c-0.581-0.007-1.047-0.409-1.039-0.897c0.007-0.408,0.34-0.748,0.789-0.845c0.106-0.342,0.452-0.611,0.894-0.656  C79.748,28.825,80.748,28.878,81.542,29.958z"/></svg>