<svg height="200" width="200" fill="#000000" xmlns="http://www.w3.org/2000/svg" xmlns:xlink="http://www.w3.org/1999/xlink" version="1.0" x="0px" y="0px" viewBox="0 0 100 100" enable-background="new 0 0 100 100" xml:space="preserve"><path fill="none" stroke="#000000" stroke-linecap="round" stroke-linejoin="round" stroke-miterlimit="10" d="M57.604,22.576  c-1.84-1.844-1.84-4.826,0.003-6.668C55.764,17.75,55.764,20.732,57.604,22.576z"/><path fill="none" stroke="#000000" stroke-linecap="round" stroke-linejoin="round" stroke-miterlimit="10" d="M53.953,49.89  c1.712-2.497,2.717-5.52,2.714-8.776C56.67,44.37,55.665,47.393,53.953,49.89z"/><path fill="none" stroke="#000000" stroke-linecap="round" stroke-linejoin="round" stroke-miterlimit="10" d="M45.549,36.667  h-4.443H45.549z"/><path fill="none" stroke="#000000" stroke-linecap="round" stroke-linejoin="round" stroke-miterlimit="10" d="M53.953,49.89  l0.493,0.495c3.681,3.679,3.681,9.651,0,13.332l-7.363,7.972c-4.189,4.19-4.189,10.981,0,15.172c4.19,4.188,10.98,4.188,15.172,0  v-0.006c4.189-4.194,4.189-10.983,0-15.171l-3.142,3.142c2.456,2.456,2.456,6.435,0,8.889v0.003c-2.456,2.456-6.434,2.456-8.888,0  l0,0c-2.453-2.454-2.453-6.433,0-8.887l11.112-11.113c8.59-8.59,8.59-22.517,0-31.11l-6.891-6.889h0.016  c-0.867-0.868-0.867-2.273,0-3.142c0.866-0.87,2.275-0.87,3.142,0l10.176,10.177L70,30.531c-3.681-3.682-5.521-8.508-5.521-13.333  V10l-0.003,0.003c-1.841,1.839-4.823,1.839-6.667-0.003c-0.995,2.409-3.751,3.549-6.158,2.553c-0.997,2.405-3.752,3.547-6.157,2.549  h-0.003c0,2.606-2.11,4.713-4.713,4.711l0,0c0.995,2.408-0.147,5.166-2.554,6.16c1.843,1.842,1.843,4.826,0,6.668  c1.708,0.706,2.759,2.301,2.881,4.025h-8.882L30,45.558c6.139,0,11.108,4.971,11.112,11.107l0,0  C46.449,56.663,51.151,53.979,53.953,49.89z"/><path fill="none" stroke="#000000" stroke-linecap="round" stroke-linejoin="round" stroke-miterlimit="10" d="M67.779,48.16h-8.89  H67.779z"/><path fill="none" stroke="#000000" stroke-linecap="round" stroke-linejoin="round" stroke-miterlimit="10" d="M67.317,52.603H61.11  H67.317z"/><path fill="none" stroke="#000000" stroke-linecap="round" stroke-linejoin="round" stroke-miterlimit="10" d="M63.333,57.048h2.555  H63.333z"/><path fill="none" stroke="#000000" stroke-linecap="round" stroke-linejoin="round" stroke-miterlimit="10" d="M61.11,43.716h6.207  H61.11z"/><path fill="none" stroke="#000000" stroke-linecap="round" stroke-linejoin="round" stroke-miterlimit="10" d="M65.884,39.272  h-2.551H65.884z"/><path fill="none" stroke="#000000" stroke-linecap="round" stroke-linejoin="round" stroke-miterlimit="10" d="M35.557,41.113  h15.555H35.557z"/><path fill="none" stroke="#000000" stroke-linecap="round" stroke-linejoin="round" stroke-miterlimit="10" d="M40.383,45.557  l10.729-4.443L40.383,45.557z"/><path fill="none" stroke="#000000" stroke-linecap="round" stroke-linejoin="round" stroke-miterlimit="10" d="M47.432,50  l3.679-8.887L47.432,50z"/></svg>