<svg height="200" width="200" fill="#000000" xmlns="http://www.w3.org/2000/svg" xmlns:xlink="http://www.w3.org/1999/xlink" version="1.1" x="0px" y="0px" viewBox="0 0 100 100" style="enable-background:new 0 0 100 100;" xml:space="preserve"><path d="M35.4,92.4c-0.4,0-0.9-0.1-1.3-0.2c-3.5-1.1-3.8-5.6-3.5-8.1L33.3,67l-9.9,11.8c-1.7,1.9-5.4,4.3-8.4,2.2  c-3-2.1-2-6.5-1-8.8l10-19.3c-2.5-4.5-3.8-9.6-3.8-14.7c0-16.4,12.9-29.8,28.9-29.8S78,21.7,78,38.1c0,5.1-1.3,10.1-3.7,14.5  l11.4,20.4c0,0,0,0,0,0c1.2,2.2,2.4,6.5-0.5,8.8c-2.9,2.3-6.6,0-8.4-1.7L65.3,67.1l3.3,16.2c0.5,2.5,0.3,7-3.1,8.3  c-3.4,1.3-6.3-2-7.5-4.2l-8.8-17.6l-7.9,17.7C40.4,89.5,38.2,92.4,35.4,92.4z M35.2,61.1c0.2,0,0.5,0.1,0.7,0.2  c0.5,0.3,0.9,1,0.8,1.6l-3.5,21.6c0,0-0.5,4.3,1.6,4.9c2.1,0.7,4-3.1,4-3.2l9.1-20.3c0.2-0.5,0.7-0.8,1.2-0.8c0.5,0,1,0.3,1.3,0.8  l10,20.2l0,0c0,0,2.1,3.7,4.2,2.9c2-0.8,1.3-5,1.3-5l-4.3-21c-0.1-0.6,0.1-1.2,0.7-1.5c0.6-0.3,1.4-0.3,1.9,0.2l14.6,16.7l0,0  c0,0,3.1,2.8,4.8,1.4c1.7-1.3-0.1-5-0.2-5.2L71.6,53.4c-0.3-0.4-0.2-1,0-1.4c2.4-4.2,3.7-9,3.7-13.8c0-14.9-11.7-26.9-26.1-26.9  c-14.4,0-26.1,12.1-26.1,26.9c0,4.9,1.3,9.7,3.8,14c0.3,0.4,0.3,1,0,1.4l-10.4,20l0,0c0,0-1.7,3.9,0.1,5.2c1.8,1.3,4.7-1.7,4.8-1.8  l12.8-15.3C34.4,61.3,34.8,61.1,35.2,61.1z M35.7,33.8c0.6-1.7,2.1-2.8,3.9-2.8c1.9,0,3.6,1.1,4.2,2.8c0.3,0.7,1.1,1.1,1.8,0.8  c0.7-0.3,1.1-1.1,0.8-1.8c-1-2.8-3.8-4.6-6.8-4.6c-2.9,0-5.5,1.9-6.5,4.6c-0.1,0.2-0.1,0.3-0.1,0.5c0,0.6,0.3,1.1,0.9,1.3  c0.2,0.1,0.3,0.1,0.5,0.1C35,34.8,35.5,34.4,35.7,33.8z M56.3,33.8c0.6-1.7,2.1-2.8,3.9-2.8c1.9,0,3.6,1.1,4.2,2.8  c0.3,0.7,1.1,1.1,1.8,0.8c0.7-0.3,1.1-1.1,0.8-1.8c-1-2.8-3.8-4.6-6.8-4.6c-2.9,0-5.5,1.9-6.5,4.6c-0.1,0.2-0.1,0.3-0.1,0.5  c0,0.6,0.3,1.1,0.9,1.3c0.2,0.1,0.3,0.1,0.5,0.1C55.6,34.8,56.1,34.4,56.3,33.8z M50.3,47.5c2.9,0,5.4-1.9,6.4-4.7  c0.1-0.2,0.1-0.3,0.1-0.5c0-0.6-0.4-1.1-0.9-1.3c-0.7-0.3-1.5,0.1-1.8,0.9c0,0.1,0,0.1-0.1,0.2c-0.6,1.5-2,2.5-3.6,2.6  c-0.1,0-0.1,0-0.2,0c-1.8,0-3.6-1.1-4.2-2.8c-0.3-0.7-1.1-1.1-1.8-0.8c-0.7,0.3-1,1.1-0.8,1.8C44.5,45.7,47.2,47.5,50.3,47.5  C50.2,47.5,50.3,47.5,50.3,47.5z"/></svg>