<svg width="200" height="200" fill="#000000" xmlns="http://www.w3.org/2000/svg" xmlns:xlink="http://www.w3.org/1999/xlink" version="1.1" x="0px" y="0px" viewBox="0 0 100 100" enable-background="new 0 0 100 100" xml:space="preserve"><path d="M91.992,45.039c-7.583-1.797-27.363-3.786-27.563-3.806c-1.832-0.19-2.517-0.338-2.543-0.345l-0.206-0.045l-0.077-0.196  c-2.225-5.638-7.69-9.664-9.086-9.796c0.017,0.055,0.047,0.133,0.1,0.239c1.087,2.134,1.642,5.729,0.529,8.188  c-0.627,1.385-1.69,2.277-3.163,2.652c-2.863,0.731-7.881,2.131-14.912,4.159l-0.319,0.093c-0.194,0.056-0.403,0.085-0.627,0.085  c-0.919,0-1.907-0.464-2.778-0.874c-0.518-0.242-1.054-0.494-1.303-0.494c-0.226,0.181-0.039,1.136,0.276,1.859l0.224,0.512  l-0.557,0.04c-3.439,0.25-9.705,1.202-9.768,1.212l-0.253,0.039l-0.14-0.214c-2.9-4.488-5.993-6.266-8.984-7.985  c-0.859-0.495-1.748-1.006-2.614-1.571c-2.065-1.351-2.962-1.497-3.253-1.497c-0.143,0-0.188,0.033-0.188,0.034  c0.004,0.005,0.012,0.132,0.155,0.318c0.282,0.371,0.358,0.871,0.438,1.401c0.162,1.072,0.334,1.735,1.364,1.883  c1.519,0.22,2.062,1.072,2.963,2.482c0.501,0.786,1.124,1.764,2.119,2.976c0.833,1.016,1.56,1.573,2.144,2.02  c1.56,1.195,1.771,1.792,0.264,4.91c-0.57,1.182-1.078,2.11-1.488,2.858c-0.367,0.673-0.744,1.365-0.816,1.659  c0.17,0.008,0.516-0.045,1.025-0.163c1.66-0.384,2.97-1.648,4.125-2.764c0.66-0.638,1.283-1.238,1.912-1.62  c0.57-0.346,0.902-0.782,1.223-1.202c0.479-0.627,0.973-1.277,2.12-1.277c0.176,0,0.367,0.016,0.567,0.047  c2.154,0.328,5.189,1.214,5.318,1.25l0.439,0.131l-0.193,0.415c-0.24,0.522-0.414,1.144-0.391,1.378  c0.04-0.008,0.1-0.024,0.184-0.06c1.369-0.576,2.156-1.182,2.164-1.188l0.13-0.102l0.164,0.022c3.419,0.448,7.407,0.754,7.448,0.756  l3.04,0.23l-2.999,0.552c-0.639,0.118-1.319,0.364-1.492,0.534c0.076,0.079,0.334,0.279,1.164,0.55  c1.875,0.611,2.606,1.71,3.09,2.437c0.311,0.465,0.456,0.654,0.646,0.654c0.136,0,0.329-0.075,0.575-0.22  c1.901-1.121,3.097-2.329,3.108-2.341l0.13-0.133l0.186,0.017c0.512,0.042,1.004,0.091,1.498,0.143  c1.554,0.154,3.16,0.315,5.514,0.315c2.263,0,4.965-0.15,8.262-0.458c0.549-0.052,1.063-0.103,1.565-0.151  c-0.05-0.13-0.1-0.265-0.149-0.411c-0.214-0.645-0.162-1.243,0.151-1.781c0.772-1.314,2.897-1.732,2.987-1.748l0.148,0.774  c-0.02,0.004-1.866,0.368-2.455,1.375c-0.196,0.336-0.223,0.705-0.082,1.129c0.095,0.283,0.194,0.53,0.285,0.764l0.037,0.097  c0.004,0.006,0.006,0.012,0.009,0.02c0.427,1.08,0.725,1.946,0.16,4.379c-0.006,0.029-0.012,0.058-0.019,0.084  c-0.018,0.075-0.037,0.152-0.057,0.232c-0.018,0.071-0.037,0.143-0.055,0.214c-0.012,0.045-0.022,0.09-0.035,0.135  c-0.028,0.109-0.059,0.222-0.092,0.336c-0.004,0.017-0.008,0.03-0.012,0.047c-0.24,0.864-0.568,1.889-1.004,3.124  c0,0.002-0.001,0.004-0.001,0.008c-0.069,0.191-0.141,0.394-0.214,0.597c-0.005,0.017-0.011,0.033-0.017,0.049  c-0.066,0.184-0.135,0.371-0.203,0.561c-0.017,0.043-0.031,0.082-0.045,0.122c-0.085,0.229-0.172,0.465-0.262,0.705  c-0.049,0.133-0.095,0.257-0.137,0.375c-0.013,0.035-0.021,0.065-0.034,0.098c-0.028,0.084-0.058,0.165-0.083,0.24  c-0.021,0.062-0.037,0.116-0.057,0.174c-0.014,0.045-0.029,0.09-0.042,0.135c-0.018,0.057-0.033,0.109-0.05,0.162  c-0.011,0.037-0.023,0.078-0.033,0.112c-0.014,0.049-0.026,0.094-0.038,0.141c-0.011,0.035-0.021,0.071-0.03,0.106  c-0.011,0.043-0.02,0.079-0.029,0.12c-0.007,0.032-0.018,0.067-0.024,0.098c-0.008,0.037-0.015,0.067-0.021,0.102  c-0.007,0.031-0.014,0.062-0.021,0.09c-0.005,0.028-0.01,0.058-0.015,0.084c-0.005,0.028-0.011,0.057-0.015,0.083  c-0.004,0.024-0.007,0.045-0.011,0.067c-0.004,0.026-0.008,0.053-0.01,0.077c-0.004,0.019-0.004,0.033-0.006,0.049  c-0.002,0.027-0.006,0.052-0.009,0.074c0,0.012,0,0.024-0.002,0.034c0,0.022-0.002,0.047-0.002,0.067c0,0.008,0,0.017,0,0.024  c0,0.021,0,0.043,0,0.059c0,0.007,0,0.011,0,0.015c0.001,0.019,0.002,0.037,0.004,0.053c0,0.002,0,0.004,0,0.007  c0.007,0.053,0.016,0.085,0.022,0.105c0.681-0.032,2.608-1.958,4.461-4.13c1.45-1.71,2.858-3.566,3.574-4.767  c0.116-0.197,0.226-0.403,0.33-0.615c0.002-0.006,0.004-0.01,0.006-0.017c0.102-0.207,0.195-0.421,0.283-0.64  c0.003-0.006,0.006-0.012,0.007-0.016c0.087-0.219,0.168-0.44,0.242-0.663c0.005-0.01,0.007-0.02,0.011-0.028  c0.072-0.216,0.14-0.434,0.201-0.649c0.008-0.024,0.013-0.047,0.019-0.071c0.057-0.2,0.108-0.397,0.157-0.594  c0.011-0.051,0.023-0.1,0.034-0.15c0.039-0.165,0.075-0.328,0.108-0.487c0.019-0.089,0.037-0.177,0.054-0.265  c0.014-0.069,0.025-0.139,0.038-0.206c0.38-2.05,0.411-3.792,0.411-3.822l0.791,0.01c-0.002,0.097-0.02,1.144-0.201,2.56  c2.535-0.302,5.015-0.591,8.591-0.887c4.25-0.35,6.19-1.041,7.546-1.75c-0.174-0.132-0.405-0.294-0.684-0.458  c0.229-0.219,0.514-0.542,0.695-0.938c0,0-0.646,0.363-1.308,0.614c-0.464-0.222-1.013-0.429-1.65-0.569l-1.47-0.324l1.439-0.439  c0.049-0.016,0.573-0.167,1.39-0.25c0.305,0.34,0.529,0.688,0.529,0.688c0.102-0.178,0.201-0.463,0.282-0.737  c0.601-0.013,1.293,0.026,2.041,0.158c-0.014,0.5-0.085,1.039-0.085,1.039l1.08-0.81c0.32,0.092,0.646,0.197,0.977,0.33  c2.776-1.227,4.494-2.556,4.422-3.445C95.179,46.434,94.72,45.684,91.992,45.039z M72.176,49.196  c0.011,0.16,0.047,0.316,0.061,0.473c0.025,0.153,0.069,0.299,0.095,0.444c0.022,0.149,0.079,0.277,0.109,0.408  c0.041,0.126,0.062,0.251,0.104,0.354c0.039,0.103,0.066,0.2,0.092,0.276c0.047,0.16,0.07,0.258,0.07,0.258s-0.08-0.051-0.213-0.157  c-0.127-0.11-0.328-0.258-0.495-0.498c-0.085-0.119-0.2-0.238-0.272-0.391c-0.076-0.151-0.168-0.31-0.232-0.486  c-0.054-0.179-0.125-0.365-0.155-0.563c-0.023-0.196-0.063-0.398-0.052-0.602l0.009-0.303c0.01-0.101,0.032-0.2,0.047-0.299  c0.024-0.198,0.094-0.381,0.15-0.56c0.07-0.174,0.14-0.34,0.227-0.487c0.083-0.147,0.174-0.28,0.267-0.395  c0.176-0.233,0.361-0.396,0.496-0.5c0.134-0.104,0.225-0.146,0.225-0.146s-0.035,0.091-0.085,0.248  c-0.053,0.156-0.124,0.374-0.194,0.628c-0.038,0.127-0.068,0.267-0.103,0.41c-0.037,0.143-0.059,0.295-0.091,0.447  c-0.015,0.157-0.052,0.313-0.057,0.475c-0.019,0.16-0.025,0.322-0.021,0.485C72.14,48.875,72.175,49.037,72.176,49.196z   M74.269,49.196c0.009,0.16,0.046,0.316,0.06,0.473c0.025,0.153,0.069,0.299,0.094,0.444c0.023,0.149,0.079,0.277,0.11,0.408  c0.039,0.126,0.06,0.251,0.103,0.354c0.04,0.103,0.067,0.2,0.092,0.276c0.048,0.16,0.071,0.258,0.071,0.258  s-0.081-0.051-0.213-0.157c-0.128-0.11-0.328-0.258-0.496-0.498c-0.085-0.119-0.2-0.238-0.272-0.391  c-0.076-0.151-0.167-0.31-0.231-0.486c-0.054-0.179-0.125-0.365-0.154-0.563c-0.025-0.196-0.065-0.398-0.053-0.602l0.01-0.303  c0.009-0.101,0.03-0.2,0.045-0.299c0.024-0.198,0.095-0.381,0.149-0.56c0.071-0.174,0.14-0.34,0.228-0.487  c0.084-0.147,0.174-0.28,0.267-0.395c0.177-0.233,0.361-0.396,0.495-0.5c0.136-0.104,0.227-0.146,0.227-0.146  s-0.035,0.091-0.087,0.248c-0.052,0.156-0.121,0.374-0.192,0.628c-0.038,0.127-0.067,0.267-0.103,0.41  c-0.037,0.143-0.06,0.295-0.091,0.447c-0.016,0.157-0.053,0.313-0.057,0.475c-0.019,0.16-0.024,0.322-0.021,0.485  C74.23,48.875,74.266,49.037,74.269,49.196z M76.581,49.196c0.012,0.16,0.047,0.316,0.061,0.473  c0.026,0.153,0.068,0.299,0.095,0.444c0.022,0.149,0.08,0.277,0.108,0.408c0.041,0.126,0.063,0.251,0.104,0.354  c0.039,0.103,0.066,0.2,0.091,0.276c0.048,0.16,0.07,0.258,0.07,0.258s-0.079-0.051-0.212-0.157  c-0.127-0.11-0.328-0.258-0.496-0.498c-0.083-0.119-0.199-0.238-0.271-0.391c-0.077-0.151-0.167-0.31-0.232-0.486  c-0.052-0.179-0.125-0.365-0.154-0.563c-0.024-0.196-0.063-0.398-0.053-0.602l0.009-0.303c0.01-0.101,0.031-0.2,0.047-0.299  c0.024-0.198,0.094-0.381,0.149-0.56c0.07-0.174,0.142-0.34,0.227-0.487c0.085-0.147,0.175-0.28,0.269-0.395  c0.175-0.233,0.36-0.396,0.495-0.5s0.224-0.146,0.224-0.146s-0.034,0.091-0.084,0.248c-0.054,0.156-0.123,0.374-0.195,0.628  c-0.037,0.127-0.066,0.267-0.102,0.41s-0.058,0.295-0.091,0.447c-0.016,0.157-0.052,0.313-0.057,0.475  c-0.018,0.16-0.024,0.322-0.021,0.485C76.545,48.875,76.581,49.037,76.581,49.196z M83.911,46.248c0-0.561,0.454-1.015,1.015-1.015  s1.015,0.454,1.015,1.015c0,0.56-0.454,1.013-1.015,1.013S83.911,46.808,83.911,46.248z"/></svg>