<svg height="200" width="200" fill="#000000" xmlns="http://www.w3.org/2000/svg" xmlns:xlink="http://www.w3.org/1999/xlink" version="1.1" x="0px" y="0px" viewBox="0 0 100 100" enable-background="new 0 0 100 100" xml:space="preserve"><g><path fill="#000000" d="M95,25.8c-0.3-0.8-1.1-1.3-1.9-1.1c-1.6,0.4-3.8,0.9-5.7,1.3c2.5-3.2,3.5-6.4,3.7-7.2l0,0l0,0   c0.3-0.8-0.1-1.7-0.8-2c-6-2.6-12.3-4-18.8-4c-6,0-11.8,1.1-17.3,3.3L37.7,8.5c-0.4-0.2-0.9-0.2-1.3,0s-0.8,0.6-0.9,1   c-1.9,7.3-3.4,11.6-14.1,28.2c-0.3,0.5-0.3,1-0.1,1.5l4.6,10.2c-0.3,1.5-0.6,3-0.8,4.5l-10.3,0.6c-0.7,0-1.3,0.6-1.5,1.3   c-0.1,0.7,0.3,1.5,1,1.7l10.6,4.4c0.1,2.2,0.4,4.4,0.8,6.6L4.1,62.3c-0.7-0.2-1.5,0.1-1.9,0.8c-0.3,0.7-0.2,1.5,0.5,2l16.7,12.8   l11.4,18c0.3,0.5,0.8,0.7,1.4,0.7c0.2,0,0.4,0,0.6-0.1c0.7-0.3,1.1-1,1-1.8l-3.7-20c2.8,2.1,6,3.7,9.5,4.8L41,90.3   c0.1,0.8,0.7,1.3,1.5,1.4h0.1c0.7,0,1.3-0.5,1.5-1.1l2.8-9.6c1.4,0.2,2.9,0.2,4.4,0.2c10.4,0,20.8-3.9,29.2-11.1   c1.9-1.6,3.6-3.3,5.2-5.2l3.6,6.5c0.3,0.5,0.8,0.8,1.4,0.8c0.1,0,0.3,0,0.4-0.1c0.7-0.2,1.2-0.8,1.2-1.6l-0.3-15   c2.9-5.6,4.5-11.6,4.7-17.6C96.8,33.8,96.3,29.7,95,25.8z M68.7,22.5c0.9-0.8,2.1-1.2,3.2-1.2c1,0,2.1,0.3,3,1c0,0,0,0,0,0   c0.3,0.2,0.5,0.5,0.8,0.7c0.1,0.2,0.3,0.3,0.4,0.5c0.1,0.1,0.2,0.3,0.3,0.4c0.2,0.3,0.3,0.6,0.4,1c0,0,0,0,0,0   c0.5,1.8-0.1,3.8-1.6,5c-0.2,0.2-0.5,0.4-0.7,0.5c-0.3,0.1-0.5,0.3-0.8,0.4c-0.1,0-0.2,0.1-0.3,0.1c-0.3,0.1-0.5,0.1-0.8,0.2   c-0.1,0-0.2,0-0.2,0c-0.2,0-0.4,0-0.7,0c-0.1,0-0.2,0-0.3,0c-0.3,0-0.6-0.1-0.9-0.2c-0.8-0.3-1.5-0.7-2.1-1.4c0,0-0.1-0.1-0.1-0.1   l0,0c-0.2-0.3-0.4-0.5-0.5-0.8c-0.1-0.2-0.2-0.4-0.3-0.6c0,0,0,0,0,0c-0.2-0.5-0.3-1-0.3-1.5c0-0.1,0-0.1,0-0.2   C66.9,25,67.5,23.5,68.7,22.5z M28.3,41.7c-0.1,0.3-0.2,0.6-0.3,0.9c-0.1,0.3-0.3,0.6-0.4,0.9c0,0.1-0.1,0.2-0.1,0.3   c-0.1,0.3-0.2,0.6-0.3,0.9l-2.7-5.9C33.8,24.3,36.1,19.2,38,12.2l12.3,5.7c-0.1,0-0.1,0.1-0.2,0.1c-0.5,0.3-1,0.5-1.4,0.8   c-0.4,0.2-0.7,0.4-1.1,0.6c-0.3,0.1-0.5,0.3-0.8,0.5c-0.5,0.3-1,0.7-1.5,1c-0.4,0.3-0.8,0.5-1.2,0.8c-0.5,0.3-0.9,0.7-1.4,1   c0,0,0,0-0.1,0.1c-0.5,0.4-0.9,0.7-1.4,1.1c-0.9,0.7-1.7,1.5-2.5,2.3c-0.3,0.2-0.5,0.5-0.7,0.7c-0.3,0.3-0.7,0.7-1,1   c-0.3,0.3-0.5,0.6-0.8,0.9c-0.2,0.2-0.3,0.4-0.5,0.6c-0.3,0.4-0.7,0.8-1,1.2c-0.3,0.4-0.6,0.8-0.9,1.2c-0.7,1-1.4,2-2,3   c-0.2,0.3-0.4,0.6-0.6,1c-0.1,0.2-0.3,0.4-0.4,0.6c-0.2,0.3-0.3,0.5-0.5,0.8c-0.1,0.2-0.2,0.4-0.3,0.6c-0.2,0.3-0.3,0.6-0.5,0.9   C29.2,39.7,28.7,40.7,28.3,41.7z M88.9,54.5L88.9,54.5l-4.3,6.6l0,0.1l0,0.1c-1.8,2.3-3.9,4.5-6.2,6.4C70.5,74.3,60.9,78,51.2,78   c-1.9,0-3.8-0.2-5.6-0.4l-4.3-0.9h0c-4.4-1.3-8.3-3.4-11.6-6.3c0.1-0.3,0.3-0.6,0.4-1c0.3-0.6,0.6-1.3,1-1.9c1.4-2.6,3-5.3,4.8-8   c0.2-0.3,0.5-0.7,0.7-1c0.2-0.3,0.5-0.7,0.7-1c0.2-0.3,0.5-0.7,0.7-1c0.8-1.1,1.7-2.2,2.6-3.3c2.1-2.6,4.5-5.1,6.9-7.6   c0.5-0.5,1.1-1.1,1.6-1.6c1.6-1.6,3.3-3.1,5.1-4.6c0.8-0.7,1.6-1.4,2.5-2c0.5-0.4,1.1-0.9,1.7-1.3c7.3,7.2,14.8,10.8,22.7,10.8   c3.7,0,7.5-0.8,11.4-2.4C91.9,47.9,90.6,51.3,88.9,54.5z M93.5,38c0,0.9-0.1,1.8-0.2,2.7c-11.5,5.5-21.7,3.5-32-6.5   c1.5-1,2.9-2,4.3-2.9c0.1,0.1,0.1,0.2,0.2,0.2c1.5,1.8,3.8,2.9,6.2,2.9c1.9,0,3.8-0.7,5.3-2c2.6-2.2,3.5-5.6,2.5-8.8   c2.2-0.9,4.6-1.8,7.3-2.8c-0.8,1.7-2.3,3.9-4.5,5.6c-1.1,0.8-0.9,1.7-0.8,2.1c0.2,0.4,0.6,1.2,2,1.2c1.7,0,6.3-1.1,8.8-1.7   C93.2,31.3,93.6,34.6,93.5,38z"/><path fill="#000000" d="M74.2,26.2c0,0.7-0.3,1.4-0.8,1.8c-0.8,0.7-2,0.7-2.8,0.2c0,0-0.1,0-0.1-0.1c-0.1-0.1-0.3-0.2-0.4-0.3   c-0.1-0.1-0.2-0.2-0.3-0.4c-0.1-0.2-0.2-0.4-0.2-0.6c-0.2-0.7,0-1.4,0.5-2c0.1-0.1,0.1-0.2,0.2-0.2c0,0,0.1-0.1,0.1-0.1   c0.3-0.3,0.7-0.4,1.1-0.5c0.1,0,0.1,0,0.2,0c0.7-0.1,1.5,0.2,2,0.7l0.1,0.1c0.1,0.1,0.2,0.3,0.3,0.4C74.1,25.5,74.2,25.8,74.2,26.2   C74.2,26.4,74.2,26,74.2,26.2z"/><path fill="#000000" d="M68,47c-0.6-0.3-1.3-0.1-1.8,0.3L51.4,61.9c-0.4,0.4-0.6,1-0.4,1.6c0.1,0.5,0.6,1,1.2,1.1l13.6,3.2   c0.1,0,0.3,0,0.4,0c0.3,0,0.7-0.1,1-0.3c0.4-0.3,0.6-0.7,0.6-1.2L69,48.6C69,47.9,68.6,47.3,68,47z"/></g></svg>