<svg width="200" height="200" fill="#000000" xmlns:dc="http://purl.org/dc/elements/1.1/" xmlns:cc="http://creativecommons.org/ns#" xmlns:rdf="http://www.w3.org/1999/02/22-rdf-syntax-ns#" xmlns:svg="http://www.w3.org/2000/svg" xmlns="http://www.w3.org/2000/svg" xmlns:sodipodi="http://sodipodi.sourceforge.net/DTD/sodipodi-0.dtd" xmlns:inkscape="http://www.inkscape.org/namespaces/inkscape" version="1.1" x="0px" y="0px" viewBox="0 0 100 100"><g transform="translate(0,-952.36218)"><path style="text-indent:0;text-transform:none;direction:ltr;block-progression:tb;baseline-shift:baseline;color:#000000;enable-background:accumulate;" d="m 79.001371,976.36218 c -3.77749,0 -7.10092,2.19848 -9.37427,5.46359 -2.08379,2.99285 -3.32949,6.95204 -3.53098,11.33304 l -2.18733,1.31126 c -4.22665,-5.46632 -11.14688,-9.84269 -16.90493,-11.77013 -13.529772,-3.51672 -23.549657,0.3544 -32.216249,10.80225 -3.721282,4.69118 -5.4303736,9.65301 -6.1245236,14.82971 -0.938135,0 -1.920927,0 -2.843528,0 -0.891584,0.1007 -1.662197,0.8707 -1.76286,1.7615 -0.100665,0.8908 0.478715,1.8131 1.325394,2.1099 l 5.2183436,1.7483 c 1.203317,1.1678 2.832595,2.0986 4.155927,2.685 l -9.4992616,3.8089 c -0.693907,0.2772 -1.200793,0.9719 -1.252655,1.7168 -0.05187,0.7449 0.353868,1.503 1.002675,1.8735 7.2977506,4.1666 13.3771326,5.1563 18.0923426,3.6841 4.125809,-1.2882 6.948624,-4.477 8.343102,-8.2735 5.174148,0.052 9.516046,-1.1566 13.873921,-3.0908 l 4.905872,9.8345 c 0.26669,0.5541 0.80292,0.9708 1.40614,1.0927 4.74726,0.6723 9.04443,1.0798 13.56144,0.5619 2.08972,-0.2182 3.47475,-0.772 3.81221,-2.7786 -0.90974,-7.2716 -6.28922,-12.3544 -13.37396,-14.6112 0.46654,-0.3387 0.89812,-0.7113 1.34364,-1.0615 3.64927,0.1896 6.99523,-0.9931 10.34295,-1.7483 3.72791,-0.8411 7.40649,-1.2797 11.93657,0.5307 1.33294,0.5461 3.00615,-0.8375 2.71854,-2.2479 l -0.15624,-0.7805 c 1.71339,0.6724 3.59529,1.103 5.59332,0.9366 1.8893,-0.1573 3.8701,-0.954 5.40583,-2.5288 1.87379,-2.3768 2.88935,-4.39479 3.1872,-7.21195 0,-5.01378 -1.89989,-9.91908 -4.93712,-13.64336 -3.13534,-3.93739 -7.99754,-6.25371 -12.06151,-6.33771 z m 0,3.99623 c 3.24975,0 6.47446,1.85104 8.9368,4.8704 2.41727,2.96406 3.97409,6.98692 4.03094,10.89595 -0.45583,2.35521 -1.21422,3.81422 -2.03109,4.65184 -0.8391,0.8604 -1.73307,1.2188 -2.84353,1.3113 -2.22092,0.1849 -5.22584,-1.0828 -6.90571,-2.34156 -1.93686,-0.87578 -2.95422,0.31876 -3.15601,1.96686 l 0.34373,1.7796 c -4.0844,-0.8883 -7.76914,-0.4649 -10.93665,0.2497 -1.65517,0.3735 -3.16733,0.7429 -4.5934,1.0615 1.55691,-1.8847 2.66455,-3.8929 2.93727,-6.08797 1.22095,-0.94763 2.85346,-1.81259 4.24967,-2.65369 0.58921,-0.35432 0.9704,-1.03004 0.96868,-1.71713 0,-4.12573 1.17969,-7.76087 2.90602,-10.24032 1.67941,-1.93119 3.9364,-3.69952 6.09328,-3.74648 z m -38.621998,4.93284 c -1.391797,3.26888 -2.21961,6.73125 -2.31232,10.64619 l -12.592771,5.05776 c -2.124722,-2.11235 -4.021428,-3.89765 -6.718228,-6.0256 5.968027,-6.56451 13.011649,-10.56957 21.623319,-9.67835 z m 3.999689,0.81173 c 4.255459,1.32459 8.810949,3.62325 11.874079,6.52508 -2.39341,3.16343 -5.50601,6.75265 -8.81182,9.80324 -1.752588,-1.3861 -3.588086,-3.10759 -5.437074,-4.93284 0.08431,-4.09884 0.950167,-8.28161 2.374815,-11.39548 z m 32.622459,4.24599 c -1.10448,0 -1.99984,0.89458 -1.99984,1.99811 0,1.10353 0.89536,1.99811 1.99984,1.99811 1.10449,0 1.99985,-0.89458 1.99985,-1.99811 0,-1.10353 -0.89536,-1.99811 -1.99985,-1.99811 z m -17.52988,4.71429 c 1.26722,1.05362 1.48663,2.00239 1.34364,3.15327 -0.18653,1.50137 -1.51377,3.66217 -3.71846,5.80697 -4.39365,4.2744 -11.977953,8.4627 -17.654875,10.3652 -8.433702,1.8208 -20.771885,1.8256 -26.560435,-3.9961 7.423373,2.9204 16.692415,4.4184 24.623085,2.8723 8.542625,-2.1338 16.728155,-11.165 21.967045,-18.20159 z m -43.059155,3.12205 c 2.590924,2.05069 4.366372,3.74139 6.56199,5.93189 -0.121689,1.691 -0.643187,3.0882 -1.312398,4.9641 -2.889464,-0.6939 -5.724396,-1.7193 -8.468092,-2.9972 0.317449,-2.1809 1.410843,-5.0321 3.2185,-7.89879 z m 22.404508,1.77957 c 1.795318,1.78512 3.620443,3.55022 5.499573,5.08892 -2.676545,2.1014 -5.340417,3.6974 -7.749398,4.3084 -3.655328,0.8116 -7.303839,0.8949 -10.905402,0.4371 0.576739,-1.615 1.107626,-3.1929 1.28115,-5.0889 z m 12.155307,13.48722 c 7.06272,1.097 12.20094,4.7794 13.68643,10.4277 -3.77373,0.3606 -7.72289,0.1249 -11.37411,-0.4683 l -4.40591,-8.8042 c 0.7019,-0.3702 1.40101,-0.754 2.09359,-1.1552 z m -30.028917,5.0266 c 2.012917,0.4076 4.102279,0.6936 6.218266,0.8429 -1.086219,2.2099 -2.810009,3.8277 -5.249592,4.5894 -2.595181,0.8103 -6.256847,0.5533 -10.967897,-1.4361 z" fill="#000000" fill-opacity="1" stroke="none" marker="none" visibility="visible" display="inline" overflow="visible"/></g></svg>