<svg fill="#000000" xmlns="http://www.w3.org/2000/svg" xmlns:xlink="http://www.w3.org/1999/xlink" viewBox="0 0 24 24" version="1.1" x="0px" y="0px"><title>award_010-trophy-sport-cup-champion-prize-victory</title><desc>Created with Sketch.</desc><g stroke="none" stroke-width="1" fill="none" fill-rule="evenodd"><g transform="translate(-477.000000, -45.000000)" fill="#000000"><g transform="translate(477.000000, 45.000000)"><path d="M4,2.5 L4,5.7 C4,13.0892115 7.23448671,17 11.5,17 C15.7655133,17 19,13.0892115 19,5.7 L19,4.18919135 L19,2.5 C19,2.22385763 18.7761424,2 18.5,2 L4.5,2 C4.22385763,2 4,2.22385763 4,2.5 Z M18,3 C18,3 18,5.10315005 18,5.7 C18,12.5744248 15.1668175,16 11.5,16 C7.83318246,16 5,12.5744248 5,5.7 L5,3 L18,3 Z"/><path d="M7.7773501,22.9160251 C8.63033097,22.3473712 9.84613028,22 11.5,22 C13.1538697,22 14.369669,22.3473712 15.2226499,22.9160251 C15.7082687,23.239771 15.9647682,23.5475704 16.0527864,23.7236068 C16.176281,23.970596 16.4766175,24.0707082 16.7236068,23.9472136 C16.970596,23.823719 17.0707082,23.5233825 16.9472136,23.2763932 C16.7852318,22.9524296 16.4167313,22.510229 15.7773501,22.0839749 C14.755331,21.4026288 13.3461303,21 11.5,21 C9.65386972,21 8.24466903,21.4026288 7.2226499,22.0839749 C6.58326872,22.510229 6.21476821,22.9524296 6.0527864,23.2763932 C5.92929178,23.5233825 6.02940395,23.823719 6.2763932,23.9472136 C6.52338245,24.0707082 6.82371897,23.970596 6.9472136,23.7236068 C7.03523179,23.5475704 7.29173128,23.239771 7.7773501,22.9160251 Z"/><polygon points="10 21.5 11 21.5 11 16 10 16"/><polygon points="12 21.5 13 21.5 13 16 12 16"/><path d="M22.5,1 C22.7761424,1 23,0.776142375 23,0.5 C23,0.223857625 22.7761424,0 22.5,0 L20.5,0 C20.2238576,0 20,0.223857625 20,0.5 C20,0.776142375 20.2238576,1 20.5,1 L22.5,1 Z"/><path d="M19.1464466,3.64644661 C18.8755813,3.91731197 18.6275172,4 18.5,4 L18.5,5 C18.5,5 19.3744187,4.83268803 19.8535534,4.35355339 C20.582688,3.62441875 21,2.37248285 21,0.5 L20,0.5 C20,2.12751715 19.667312,3.12558125 19.1464466,3.64644661 Z"/><path d="M3.14644661,4.35355339 C3.62558125,4.83268803 4.12751715,5 4.5,5 L4.5,4 C4.5,4 4.12441875,3.91731197 3.85355339,3.64644661 C3.33268803,3.12558125 3,2.12751715 3,0.5 L2,0.5 C2,2.37248285 2.41731197,3.62441875 3.14644661,4.35355339 Z"/><path d="M19.9955329,11.4308734 C21.8786709,8.99577603 23,5.41911542 23,0.5 C23,0.223857625 22.7761424,0 22.5,0 C22.2238576,0 22,0.223857625 22,0.5 C22,5.20588458 20.9463337,8.56672397 19.2044793,10.8191266 C18.6045279,11.5949274 17.9655331,12.1788377 17.3305717,12.598497 C16.9593871,12.8438206 16.6800031,12.9780078 16.5370166,13.0273136 C16.2759591,13.1173336 16.1373058,13.4019382 16.2273258,13.6629956 C16.3173458,13.9240531 16.6019504,14.0627064 16.8630079,13.9726864 C17.674748,13.6927754 18.8438979,12.9200598 19.9955329,11.4308734 Z"/><path d="M5.66942833,12.598497 C5.03446687,12.1788377 4.39547206,11.5949274 3.7955207,10.8191266 C2.05366635,8.56672397 1,5.20588458 1,0.5 C1,0.223857625 0.776142375,0 0.5,0 C0.223857625,0 0,0.223857625 0,0.5 C0,5.41911542 1.12132907,8.99577603 3.00446709,11.4308734 C4.15610214,12.9200598 5.32525196,13.6927754 6.13699214,13.9726864 C6.39804963,14.0627064 6.68265417,13.9240531 6.77267418,13.6629956 C6.86269419,13.4019382 6.72404092,13.1173336 6.46298344,13.0273136 C6.31999689,12.9780078 6.04061286,12.8438206 5.66942833,12.598497 Z"/><path d="M2.5,1 C2.77614237,1 3,0.776142375 3,0.5 C3,0.223857625 2.77614237,0 2.5,0 L0.5,0 C0.223857625,0 0,0.223857625 0,0.5 C0,0.776142375 0.223857625,1 0.5,1 L2.5,1 Z"/><path d="M16.5,24 C16.7761424,24 17,23.7761424 17,23.5 C17,23.2238576 16.7761424,23 16.5,23 L6.5,23 C6.22385763,23 6,23.2238576 6,23.5 C6,23.7761424 6.22385763,24 6.5,24 L16.5,24 Z"/><g transform="translate(7.000000, 4.000000)"><path d="M1.52030804,3.06039734 C1.32256625,2.86764673 1.00600962,2.87169289 0.813259011,3.06943467 C0.620508405,3.26717646 0.624554559,3.5837331 0.822296348,3.7764837 L2.48664525,5.39882292 C2.68438704,5.59157353 3.00094367,5.58752737 3.19369428,5.38978559 C3.38644488,5.1920438 3.38239873,4.87548716 3.18465694,4.68273656 L1.52030804,3.06039734 Z"/><path d="M3.54327497,3.57902377 C3.8165474,3.53931496 4.00588812,3.28559353 3.96617932,3.0123211 C3.92647051,2.73904867 3.67274908,2.54970794 3.39947665,2.58941675 L1.09940303,2.92363701 C0.826130603,2.96334582 0.636789877,3.21706725 0.676498685,3.49033968 C0.716207494,3.76361211 0.96992892,3.95295284 1.24320135,3.91324403 L3.54327497,3.57902377 Z"/><path d="M3.32845526,5.12530227 C3.37513576,4.85313405 3.19234185,4.59465608 2.92017363,4.54797558 C2.6480054,4.50129507 2.38952744,4.68408899 2.34284693,4.95625721 L1.94994746,7.24703695 C1.90326695,7.51920517 2.08606086,7.77768314 2.35822909,7.82436364 C2.63039731,7.87104415 2.88887527,7.68825023 2.93555578,7.41608201 L3.32845526,5.12530227 Z"/><path d="M2.21008105,6.88899377 C1.96565876,7.01749417 1.8716855,7.31980775 2.00018591,7.56423004 C2.12868631,7.80865234 2.43099989,7.9026256 2.67542218,7.77412519 L4.73267056,6.69256571 C4.97709286,6.56406531 5.07106612,6.26175173 4.94256571,6.01732944 C4.81406531,5.77290714 4.51175173,5.67893388 4.26732944,5.80743429 L2.21008105,6.88899377 Z"/><path d="M6.06444422,7.41608201 C6.11112473,7.68825023 6.36960269,7.87104415 6.64177091,7.82436364 C6.91393914,7.77768314 7.09673305,7.51920517 7.05005254,7.24703695 L6.65715307,4.95625721 C6.61047256,4.68408899 6.3519946,4.50129507 6.07982637,4.54797558 C5.80765815,4.59465608 5.62486424,4.85313405 5.67154474,5.12530227 L6.06444422,7.41608201 Z"/><path d="M4.73267056,5.80743429 C4.48824827,5.67893388 4.18593469,5.77290714 4.05743429,6.01732944 C3.92893388,6.26175173 4.02290714,6.56406531 4.26732944,6.69256571 L6.32457782,7.77412519 C6.56900011,7.9026256 6.87131369,7.80865234 6.99981409,7.56423004 C7.1283145,7.31980775 7.03434124,7.01749417 6.78991895,6.88899377 L4.73267056,5.80743429 Z"/><path d="M7.75679865,3.91324403 C8.03007108,3.95295284 8.28379251,3.76361211 8.32350131,3.49033968 C8.36321012,3.21706725 8.1738694,2.96334582 7.90059697,2.92363701 L5.60052335,2.58941675 C5.32725092,2.54970794 5.07352949,2.73904867 5.03382068,3.0123211 C4.99411188,3.28559353 5.1834526,3.53931496 5.45672503,3.57902377 L7.75679865,3.91324403 Z"/><path d="M5.81534306,4.68273656 C5.61760127,4.87548716 5.61355512,5.1920438 5.80630572,5.38978559 C5.99905633,5.58752737 6.31561296,5.59157353 6.51335475,5.39882292 L8.17770365,3.7764837 C8.37544544,3.5837331 8.37949159,3.26717646 8.18674099,3.06943467 C7.99399038,2.87169289 7.67743375,2.86764673 7.47969196,3.06039734 L5.81534306,4.68273656 Z"/><path d="M5.08025615,3.30550312 C5.2024673,3.55312995 5.50228022,3.65479944 5.74990705,3.5325883 C5.99753388,3.41037715 6.09920338,3.11056423 5.97699223,2.8629374 L4.94836804,0.778717144 C4.82615689,0.531090314 4.52634397,0.429420815 4.27871714,0.551631962 C4.03109031,0.673843108 3.92942082,0.973656026 4.05163196,1.22128286 L5.08025615,3.30550312 Z"/><path d="M4.94836804,1.22128286 C5.07057918,0.973656026 4.96890969,0.673843108 4.72128286,0.551631962 C4.47365603,0.429420815 4.17384311,0.531090314 4.05163196,0.778717144 L3.02300777,2.8629374 C2.90079662,3.11056423 3.00246612,3.41037715 3.25009295,3.5325883 C3.49771978,3.65479944 3.7975327,3.55312995 3.91974385,3.30550312 L4.94836804,1.22128286 Z"/></g></g></g></g></svg>